<svg width="238" height="26" viewBox="0 0 238 26" fill="none" xmlns="http://www.w3.org/2000/svg">
<path d="M22.036 18.62C22.3 18.62 22.528 18.716 22.72 18.908C22.912 19.1 23.008 19.328 23.008 19.592V25.028C23.008 25.292 22.912 25.52 22.72 25.712C22.528 25.904 22.3 26 22.036 26H1.012C0.748 26 0.52 25.904 0.328 25.712C0.136 25.52 0.04 25.292 0.04 25.028V1.772C0.04 1.508 0.136 1.28 0.328 1.088C0.52 0.895998 0.748 0.799998 1.012 0.799998H8.788C9.052 0.799998 9.28 0.895998 9.472 1.088C9.664 1.28 9.76 1.508 9.76 1.772V18.62H22.036ZM52.5499 18.98C52.8139 18.98 53.0419 19.076 53.2339 19.268C53.4259 19.46 53.5219 19.688 53.5219 19.952V25.028C53.5219 25.292 53.4259 25.52 53.2339 25.712C53.0419 25.904 52.8139 26 52.5499 26H29.7979C29.5339 26 29.3059 25.904 29.1139 25.712C28.9219 25.52 28.8259 25.292 28.8259 25.028V1.772C28.8259 1.508 28.9219 1.28 29.1139 1.088C29.3059 0.895998 29.5339 0.799998 29.7979 0.799998H52.1899C52.4539 0.799998 52.6819 0.895998 52.8739 1.088C53.0659 1.28 53.1619 1.508 53.1619 1.772V6.848C53.1619 7.112 53.0659 7.34 52.8739 7.532C52.6819 7.724 52.4539 7.82 52.1899 7.82H38.1859V10.088H50.2099C50.4739 10.088 50.7019 10.184 50.8939 10.376C51.0859 10.568 51.1819 10.796 51.1819 11.06V15.74C51.1819 16.004 51.0859 16.232 50.8939 16.424C50.7019 16.616 50.4739 16.712 50.2099 16.712H38.1859V18.98H52.5499ZM84.8279 0.799998C85.0439 0.799998 85.2239 0.883999 85.3679 1.052C85.5359 1.196 85.6199 1.376 85.6199 1.592L85.5839 1.844L77.3039 24.812C77.1839 25.148 76.9919 25.436 76.7279 25.676C76.4639 25.892 76.1159 26 75.6839 26H67.2959C66.8639 26 66.5159 25.892 66.2519 25.676C65.9879 25.436 65.8079 25.184 65.7119 24.92L57.3599 1.844L57.3239 1.592C57.3239 1.376 57.3959 1.196 57.5399 1.052C57.7079 0.883999 57.8999 0.799998 58.1159 0.799998H65.7119C66.1439 0.799998 66.4919 0.931999 66.7559 1.196C67.0439 1.436 67.2359 1.7 67.3319 1.988L71.4719 15.776L75.6119 1.988C75.7079 1.676 75.8879 1.4 76.1519 1.16C76.4159 0.919998 76.7759 0.799998 77.2319 0.799998H84.8279ZM106.774 1.772C107.134 1.124 107.65 0.799998 108.322 0.799998H114.91C115.174 0.799998 115.402 0.895998 115.594 1.088C115.786 1.28 115.882 1.508 115.882 1.772V25.028C115.882 25.292 115.786 25.52 115.594 25.712C115.402 25.904 115.174 26 114.91 26H108.394C108.13 26 107.902 25.904 107.71 25.712C107.518 25.52 107.422 25.292 107.422 25.028V13.868L104.794 19.052C104.722 19.22 104.554 19.412 104.29 19.628C104.026 19.844 103.69 19.952 103.282 19.952H100.834C100.426 19.952 100.09 19.844 99.8258 19.628C99.5618 19.412 99.3938 19.22 99.3218 19.052L96.6938 13.868V25.028C96.6938 25.292 96.5978 25.52 96.4058 25.712C96.2138 25.904 95.9858 26 95.7218 26H89.2058C88.9418 26 88.7138 25.904 88.5218 25.712C88.3298 25.52 88.2338 25.292 88.2338 25.028V1.772C88.2338 1.508 88.3298 1.28 88.5218 1.088C88.7138 0.895998 88.9418 0.799998 89.2058 0.799998H95.7938C96.4658 0.799998 96.9818 1.124 97.3418 1.772L102.058 10.412L106.774 1.772ZM144.308 18.98C144.572 18.98 144.8 19.076 144.992 19.268C145.184 19.46 145.28 19.688 145.28 19.952V25.028C145.28 25.292 145.184 25.52 144.992 25.712C144.8 25.904 144.572 26 144.308 26H121.556C121.292 26 121.064 25.904 120.872 25.712C120.68 25.52 120.584 25.292 120.584 25.028V1.772C120.584 1.508 120.68 1.28 120.872 1.088C121.064 0.895998 121.292 0.799998 121.556 0.799998H143.948C144.212 0.799998 144.44 0.895998 144.632 1.088C144.824 1.28 144.92 1.508 144.92 1.772V6.848C144.92 7.112 144.824 7.34 144.632 7.532C144.44 7.724 144.212 7.82 143.948 7.82H129.944V10.088H141.968C142.232 10.088 142.46 10.184 142.652 10.376C142.844 10.568 142.94 10.796 142.94 11.06V15.74C142.94 16.004 142.844 16.232 142.652 16.424C142.46 16.616 142.232 16.712 141.968 16.712H129.944V18.98H144.308ZM175.65 0.799998C175.914 0.799998 176.142 0.895998 176.334 1.088C176.526 1.28 176.622 1.508 176.622 1.772V7.568C176.622 7.832 176.526 8.06 176.334 8.252C176.142 8.444 175.914 8.54 175.65 8.54H167.91V25.028C167.91 25.292 167.814 25.52 167.622 25.712C167.43 25.904 167.202 26 166.938 26H159.522C159.258 26 159.03 25.904 158.838 25.712C158.646 25.52 158.55 25.292 158.55 25.028V8.54H150.81C150.546 8.54 150.318 8.444 150.126 8.252C149.934 8.06 149.838 7.832 149.838 7.568V1.772C149.838 1.508 149.934 1.28 150.126 1.088C150.318 0.895998 150.546 0.799998 150.81 0.799998H175.65ZM188.632 24.776C188.32 25.592 187.78 26 187.012 26H180.208C179.992 26 179.8 25.928 179.632 25.784C179.488 25.616 179.416 25.424 179.416 25.208L179.452 24.992L187.3 1.988C187.396 1.676 187.576 1.4 187.84 1.16C188.104 0.919998 188.464 0.799998 188.92 0.799998H198.928C199.384 0.799998 199.744 0.919998 200.008 1.16C200.272 1.4 200.452 1.676 200.548 1.988L208.396 24.992L208.432 25.208C208.432 25.424 208.348 25.616 208.18 25.784C208.036 25.928 207.856 26 207.64 26H200.836C200.068 26 199.528 25.592 199.216 24.776L198.316 22.256H189.532L188.632 24.776ZM193.924 7.748L191.368 15.236H196.48L193.924 7.748ZM236.138 18.62C236.402 18.62 236.63 18.716 236.822 18.908C237.014 19.1 237.11 19.328 237.11 19.592V25.028C237.11 25.292 237.014 25.52 236.822 25.712C236.63 25.904 236.402 26 236.138 26H215.114C214.85 26 214.622 25.904 214.43 25.712C214.238 25.52 214.142 25.292 214.142 25.028V1.772C214.142 1.508 214.238 1.28 214.43 1.088C214.622 0.895998 214.85 0.799998 215.114 0.799998H222.89C223.154 0.799998 223.382 0.895998 223.574 1.088C223.766 1.28 223.862 1.508 223.862 1.772V18.62H236.138Z" fill="#E60303"/>
<path d="M22.72 25.712L22.0129 25.0049L22.72 25.712ZM9.472 1.088L8.76489 1.7951L8.76489 1.79511L9.472 1.088ZM9.76 18.62H8.76V19.62H9.76V18.62ZM22.036 19.62C22.0411 19.62 22.0406 19.6204 22.0357 19.6195C22.0307 19.6185 22.0241 19.6166 22.0169 19.6136C22.0099 19.6107 22.0053 19.6078 22.0037 19.6067C22.0023 19.6057 22.0055 19.6077 22.0129 19.6151L23.4271 18.2009C23.0536 17.8273 22.5736 17.62 22.036 17.62V19.62ZM22.0129 19.6151C22.0203 19.6225 22.0223 19.6257 22.0213 19.6243C22.0202 19.6227 22.0173 19.6181 22.0144 19.6111C22.0114 19.6039 22.0095 19.5973 22.0085 19.5923C22.0076 19.5874 22.008 19.5869 22.008 19.592H24.008C24.008 19.0544 23.8007 18.5744 23.4271 18.2009L22.0129 19.6151ZM22.008 19.592V25.028H24.008V19.592H22.008ZM22.008 25.028C22.008 25.0331 22.0076 25.0326 22.0085 25.0277C22.0095 25.0227 22.0114 25.0161 22.0144 25.0089C22.0173 25.0019 22.0202 24.9973 22.0213 24.9957C22.0223 24.9943 22.0203 24.9975 22.0129 25.0049L23.4271 26.4191C23.8007 26.0456 24.008 25.5656 24.008 25.028H22.008ZM22.0129 25.0049C22.0055 25.0123 22.0023 25.0143 22.0037 25.0133C22.0053 25.0122 22.0099 25.0093 22.0169 25.0064C22.0241 25.0034 22.0307 25.0015 22.0357 25.0005C22.0406 24.9996 22.0411 25 22.036 25V27C22.5736 27 23.0536 26.7927 23.4271 26.4191L22.0129 25.0049ZM22.036 25H1.012V27H22.036V25ZM1.012 25C1.00688 25 1.00741 24.9996 1.01226 25.0005C1.01727 25.0015 1.02394 25.0034 1.03106 25.0064C1.03813 25.0093 1.04268 25.0122 1.04428 25.0133C1.04571 25.0143 1.04249 25.0123 1.03511 25.0049L-0.379107 26.4191C-0.00555456 26.7927 0.474439 27 1.012 27V25ZM1.03511 25.0049C1.02773 24.9975 1.02575 24.9943 1.02673 24.9957C1.02783 24.9973 1.03066 25.0019 1.03364 25.0089C1.03663 25.0161 1.03851 25.0227 1.03949 25.0277C1.04044 25.0326 1.04 25.0331 1.04 25.028H-0.96C-0.96 25.5656 -0.752659 26.0456 -0.379107 26.4191L1.03511 25.0049ZM1.04 25.028V1.772H-0.96V25.028H1.04ZM1.04 1.772C1.04 1.76688 1.04044 1.76741 1.03949 1.77226C1.03851 1.77727 1.03663 1.78394 1.03364 1.79106C1.03066 1.79813 1.02783 1.80268 1.02673 1.80428C1.02575 1.80571 1.02773 1.80248 1.03511 1.7951L-0.379107 0.380893C-0.752658 0.754444 -0.96 1.23444 -0.96 1.772H1.04ZM1.03511 1.7951C1.04249 1.78773 1.04571 1.78574 1.04428 1.78673C1.04268 1.78782 1.03814 1.79065 1.03106 1.79363C1.02394 1.79663 1.01727 1.79851 1.01226 1.79949C1.00741 1.80044 1.00688 1.8 1.012 1.8V-0.200002C0.474438 -0.200002 -0.00555542 0.0073401 -0.379107 0.380893L1.03511 1.7951ZM1.012 1.8H8.788V-0.200002H1.012V1.8ZM8.788 1.8C8.79312 1.8 8.79259 1.80044 8.78774 1.79949C8.78273 1.79851 8.77606 1.79663 8.76894 1.79363C8.76187 1.79065 8.75732 1.78782 8.75572 1.78673C8.75429 1.78574 8.75751 1.78772 8.76489 1.7951L10.1791 0.380893C9.80556 0.00734017 9.32556 -0.200002 8.788 -0.200002V1.8ZM8.76489 1.79511C8.77227 1.80249 8.77426 1.80571 8.77327 1.80428C8.77218 1.80268 8.76935 1.79813 8.76637 1.79106C8.76337 1.78394 8.76149 1.77727 8.76051 1.77226C8.75956 1.76741 8.76 1.76688 8.76 1.772H10.76C10.76 1.23444 10.5527 0.754444 10.1791 0.380892L8.76489 1.79511ZM8.76 1.772V18.62H10.76V1.772H8.76ZM9.76 19.62H22.036V17.62H9.76V19.62ZM53.2339 19.268L52.5268 19.9751L52.5268 19.9751L53.2339 19.268ZM53.2339 25.712L52.5268 25.0049L52.5268 25.0049L53.2339 25.712ZM52.8739 1.088L52.1668 1.7951L52.1668 1.79511L52.8739 1.088ZM52.8739 7.532L52.1668 6.82489L52.1668 6.8249L52.8739 7.532ZM38.1859 7.82V6.82H37.1859V7.82H38.1859ZM38.1859 10.088H37.1859V11.088H38.1859V10.088ZM50.8939 10.376L50.1868 11.0831L50.1868 11.0831L50.8939 10.376ZM50.8939 16.424L50.1868 15.7169L50.1868 15.7169L50.8939 16.424ZM38.1859 16.712V15.712H37.1859V16.712H38.1859ZM38.1859 18.98H37.1859V19.98H38.1859V18.98ZM52.5499 19.98C52.5551 19.98 52.5545 19.9804 52.5497 19.9795C52.5447 19.9785 52.538 19.9766 52.5309 19.9736C52.5238 19.9707 52.5193 19.9678 52.5177 19.9667C52.5162 19.9657 52.5195 19.9677 52.5268 19.9751L53.941 18.5609C53.5675 18.1873 53.0875 17.98 52.5499 17.98V19.98ZM52.5268 19.9751C52.5342 19.9825 52.5362 19.9857 52.5352 19.9843C52.5341 19.9827 52.5313 19.9781 52.5283 19.9711C52.5253 19.9639 52.5234 19.9573 52.5224 19.9523C52.5215 19.9474 52.5219 19.9469 52.5219 19.952H54.5219C54.5219 19.4144 54.3146 18.9344 53.941 18.5609L52.5268 19.9751ZM52.5219 19.952V25.028H54.5219V19.952H52.5219ZM52.5219 25.028C52.5219 25.0331 52.5215 25.0326 52.5224 25.0277C52.5234 25.0227 52.5253 25.0161 52.5283 25.0089C52.5313 25.0019 52.5341 24.9973 52.5352 24.9957C52.5362 24.9943 52.5342 24.9975 52.5268 25.0049L53.941 26.4191C54.3146 26.0456 54.5219 25.5656 54.5219 25.028H52.5219ZM52.5268 25.0049C52.5195 25.0123 52.5162 25.0143 52.5177 25.0133C52.5193 25.0122 52.5238 25.0093 52.5309 25.0064C52.538 25.0034 52.5447 25.0015 52.5497 25.0005C52.5545 24.9996 52.5551 25 52.5499 25V27C53.0875 27 53.5675 26.7927 53.941 26.4191L52.5268 25.0049ZM52.5499 25H29.7979V27H52.5499V25ZM29.7979 25C29.7928 25 29.7933 24.9996 29.7982 25.0005C29.8032 25.0015 29.8099 25.0034 29.817 25.0064C29.8241 25.0093 29.8286 25.0122 29.8302 25.0133C29.8317 25.0143 29.8284 25.0123 29.821 25.0049L28.4068 26.4191C28.7804 26.7927 29.2604 27 29.7979 27V25ZM29.821 25.0049C29.8137 24.9975 29.8117 24.9943 29.8127 24.9957C29.8138 24.9973 29.8166 25.0019 29.8196 25.0089C29.8226 25.0161 29.8245 25.0227 29.8254 25.0277C29.8264 25.0326 29.8259 25.0331 29.8259 25.028H27.8259C27.8259 25.5656 28.0333 26.0456 28.4068 26.4191L29.821 25.0049ZM29.8259 25.028V1.772H27.8259V25.028H29.8259ZM29.8259 1.772C29.8259 1.76688 29.8264 1.76741 29.8254 1.77226C29.8245 1.77727 29.8226 1.78394 29.8196 1.79106C29.8166 1.79813 29.8138 1.80268 29.8127 1.80428C29.8117 1.80571 29.8137 1.80248 29.821 1.7951L28.4068 0.380893C28.0333 0.754444 27.8259 1.23444 27.8259 1.772H29.8259ZM29.821 1.7951C29.8284 1.78773 29.8317 1.78574 29.8302 1.78673C29.8286 1.78782 29.8241 1.79065 29.817 1.79363C29.8099 1.79663 29.8032 1.79851 29.7982 1.79949C29.7933 1.80044 29.7928 1.8 29.7979 1.8V-0.200002C29.2604 -0.200002 28.7804 0.00734024 28.4068 0.380893L29.821 1.7951ZM29.7979 1.8H52.1899V-0.200002H29.7979V1.8ZM52.1899 1.8C52.1951 1.8 52.1945 1.80044 52.1897 1.79949C52.1847 1.79851 52.178 1.79663 52.1709 1.79363C52.1638 1.79065 52.1593 1.78782 52.1577 1.78673C52.1562 1.78574 52.1594 1.78772 52.1668 1.7951L53.581 0.380895C53.2075 0.00733973 52.7275 -0.200002 52.1899 -0.200002V1.8ZM52.1668 1.79511C52.1742 1.80249 52.1762 1.80571 52.1752 1.80428C52.1741 1.80268 52.1713 1.79813 52.1683 1.79106C52.1653 1.78394 52.1634 1.77727 52.1624 1.77226C52.1615 1.76741 52.1619 1.76688 52.1619 1.772H54.1619C54.1619 1.23444 53.9546 0.754444 53.581 0.380892L52.1668 1.79511ZM52.1619 1.772V6.848H54.1619V1.772H52.1619ZM52.1619 6.848C52.1619 6.85312 52.1615 6.85259 52.1624 6.84774C52.1634 6.84273 52.1653 6.83606 52.1683 6.82894C52.1713 6.82186 52.1741 6.81732 52.1752 6.81572C52.1762 6.81429 52.1742 6.81751 52.1668 6.82489L53.581 8.23911C53.9546 7.86555 54.1619 7.38556 54.1619 6.848H52.1619ZM52.1668 6.8249C52.1594 6.83227 52.1562 6.83426 52.1577 6.83327C52.1593 6.83218 52.1638 6.82935 52.1709 6.82636C52.178 6.82337 52.1847 6.82149 52.1897 6.82051C52.1945 6.81956 52.1951 6.82 52.1899 6.82V8.82C52.7275 8.82 53.2075 8.61266 53.581 8.2391L52.1668 6.8249ZM52.1899 6.82H38.1859V8.82H52.1899V6.82ZM37.1859 7.82V10.088H39.1859V7.82H37.1859ZM38.1859 11.088H50.2099V9.088H38.1859V11.088ZM50.2099 11.088C50.2151 11.088 50.2145 11.0884 50.2097 11.0875C50.2047 11.0865 50.198 11.0846 50.1909 11.0816C50.1838 11.0787 50.1793 11.0758 50.1777 11.0747C50.1762 11.0737 50.1794 11.0757 50.1868 11.0831L51.601 9.6689C51.2275 9.29534 50.7475 9.088 50.2099 9.088V11.088ZM50.1868 11.0831C50.1942 11.0905 50.1962 11.0937 50.1952 11.0923C50.1941 11.0907 50.1913 11.0861 50.1883 11.0791C50.1853 11.0719 50.1834 11.0653 50.1824 11.0603C50.1815 11.0554 50.1819 11.0549 50.1819 11.06H52.1819C52.1819 10.5224 51.9746 10.0424 51.601 9.66889L50.1868 11.0831ZM50.1819 11.06V15.74H52.1819V11.06H50.1819ZM50.1819 15.74C50.1819 15.7451 50.1815 15.7446 50.1824 15.7397C50.1834 15.7347 50.1853 15.7281 50.1883 15.7209C50.1913 15.7139 50.1941 15.7093 50.1952 15.7077C50.1962 15.7063 50.1942 15.7095 50.1868 15.7169L51.601 17.1311C51.9746 16.7576 52.1819 16.2776 52.1819 15.74H50.1819ZM50.1868 15.7169C50.1795 15.7243 50.1762 15.7263 50.1777 15.7253C50.1793 15.7242 50.1838 15.7213 50.1909 15.7184C50.198 15.7154 50.2047 15.7135 50.2097 15.7125C50.2145 15.7116 50.2151 15.712 50.2099 15.712V17.712C50.7475 17.712 51.2275 17.5047 51.601 17.1311L50.1868 15.7169ZM50.2099 15.712H38.1859V17.712H50.2099V15.712ZM37.1859 16.712V18.98H39.1859V16.712H37.1859ZM38.1859 19.98H52.5499V17.98H38.1859V19.98ZM85.3679 1.052L84.6086 1.70279L84.6587 1.76119L84.7171 1.81126L85.3679 1.052ZM85.6199 1.592L86.6098 1.73342L86.6199 1.66307V1.592H85.6199ZM85.5839 1.844L86.5246 2.18314L86.5593 2.0868L86.5738 1.98542L85.5839 1.844ZM77.3039 24.812L76.3631 24.4729L76.3621 24.4757L77.3039 24.812ZM76.7279 25.676L77.3611 26.45L77.3813 26.4335L77.4005 26.4159L76.7279 25.676ZM66.2519 25.676L65.5792 26.4159L65.5985 26.4335L65.6186 26.45L66.2519 25.676ZM65.7119 24.92L64.7716 25.2603L64.7721 25.2617L65.7119 24.92ZM57.3599 1.844L56.3699 1.98542L56.3845 2.08743L56.4196 2.18433L57.3599 1.844ZM57.3239 1.592H56.3239V1.66307L56.3339 1.73342L57.3239 1.592ZM57.5399 1.052L58.247 1.75911L58.247 1.7591L57.5399 1.052ZM66.7559 1.196L66.0488 1.9031L66.0808 1.93518L66.1157 1.96422L66.7559 1.196ZM67.3319 1.988L68.2896 1.70042L68.2853 1.68603L68.2806 1.67177L67.3319 1.988ZM71.4719 15.776L70.5141 16.0636L71.4719 19.2533L72.4296 16.0636L71.4719 15.776ZM75.6119 1.988L74.6561 1.6939L74.6541 1.70042L75.6119 1.988ZM76.1519 1.16L75.4792 0.420056L75.4792 0.42006L76.1519 1.16ZM84.8279 1.8C84.8027 1.8 84.7557 1.79423 84.702 1.76918C84.649 1.74443 84.6187 1.71451 84.6086 1.70279L86.1271 0.401211C85.7985 0.0177754 85.3439 -0.200002 84.8279 -0.200002V1.8ZM84.7171 1.81126C84.7054 1.80121 84.6754 1.77092 84.6507 1.71788C84.6256 1.66421 84.6199 1.61717 84.6199 1.592H86.6199C86.6199 1.07599 86.4021 0.621401 86.0187 0.292743L84.7171 1.81126ZM84.6299 1.45058L84.5939 1.70258L86.5738 1.98542L86.6098 1.73342L84.6299 1.45058ZM84.6431 1.50486L76.3631 24.4729L78.2446 25.1511L86.5246 2.18314L84.6431 1.50486ZM76.3621 24.4757C76.2973 24.6571 76.1977 24.8065 76.0552 24.9361L77.4005 26.4159C77.786 26.0655 78.0704 25.6389 78.2456 25.1483L76.3621 24.4757ZM76.0946 24.902C76.0525 24.9365 75.9479 25 75.6839 25V27C76.2839 27 76.8752 26.8475 77.3611 26.45L76.0946 24.902ZM75.6839 25H67.2959V27H75.6839V25ZM67.2959 25C67.0319 25 66.9272 24.9365 66.8851 24.902L65.6186 26.45C66.1045 26.8475 66.6959 27 67.2959 27V25ZM66.9245 24.9361C66.7489 24.7764 66.6793 24.6542 66.6517 24.5783L64.7721 25.2617C64.9365 25.7138 65.2268 26.0956 65.5792 26.4159L66.9245 24.9361ZM66.6522 24.5797L58.3002 1.50367L56.4196 2.18433L64.7716 25.2603L66.6522 24.5797ZM58.3498 1.70258L58.3138 1.45058L56.3339 1.73342L56.3699 1.98542L58.3498 1.70258ZM58.3239 1.592C58.3239 1.59672 58.3227 1.62551 58.3064 1.66639C58.2895 1.70843 58.2658 1.74027 58.247 1.75911L56.8328 0.344891C56.489 0.688687 56.3239 1.12864 56.3239 1.592H58.3239ZM58.247 1.7591C58.2545 1.75158 58.2432 1.76495 58.2107 1.77916C58.1764 1.79416 58.1415 1.8 58.1159 1.8V-0.200002C57.6069 -0.200002 57.1677 0.00994916 56.8328 0.344894L58.247 1.7591ZM58.1159 1.8H65.7119V-0.200002H58.1159V1.8ZM65.7119 1.8C65.9238 1.8 66.002 1.85629 66.0488 1.9031L67.463 0.488895C66.9818 0.00770818 66.364 -0.200002 65.7119 -0.200002V1.8ZM66.1157 1.96422C66.2943 2.11309 66.3584 2.22989 66.3832 2.30423L68.2806 1.67177C68.1133 1.17011 67.7934 0.758909 67.3961 0.427777L66.1157 1.96422ZM66.3741 2.27558L70.5141 16.0636L72.4296 15.4884L68.2896 1.70042L66.3741 2.27558ZM72.4296 16.0636L76.5696 2.27558L74.6541 1.70042L70.5141 15.4884L72.4296 16.0636ZM76.5677 2.28209C76.6061 2.1571 76.6805 2.03094 76.8246 1.89994L75.4792 0.42006C75.0953 0.769062 74.8096 1.1949 74.6561 1.69391L76.5677 2.28209ZM76.8245 1.89994C76.8577 1.86984 76.9531 1.8 77.2319 1.8V-0.200002C76.5986 -0.200002 75.9741 -0.029844 75.4792 0.420056L76.8245 1.89994ZM77.2319 1.8H84.8279V-0.200002H77.2319V1.8ZM106.774 1.772L105.9 1.28634L105.896 1.29289L106.774 1.772ZM115.594 1.088L116.301 0.380895L116.301 0.380892L115.594 1.088ZM115.594 25.712L116.301 26.4191L116.301 26.4191L115.594 25.712ZM107.422 13.868H108.422L106.53 13.4158L107.422 13.868ZM104.794 19.052L103.902 18.5998L103.887 18.6285L103.875 18.6581L104.794 19.052ZM104.29 19.628L104.923 20.402L104.923 20.402L104.29 19.628ZM99.8258 19.628L99.1926 20.402L99.1926 20.402L99.8258 19.628ZM99.3218 19.052L100.241 18.6581L100.228 18.6285L100.214 18.5998L99.3218 19.052ZM96.6938 13.868L97.5857 13.4158L95.6938 13.868H96.6938ZM96.4058 25.712L95.6987 25.0049L95.6987 25.0049L96.4058 25.712ZM97.3418 1.772L98.2196 1.29288L98.216 1.28636L97.3418 1.772ZM102.058 10.412L101.18 10.8911L102.058 12.4992L102.936 10.8911L102.058 10.412ZM107.648 2.25764C107.854 1.88716 108.056 1.8 108.322 1.8V-0.200002C107.243 -0.200002 106.414 0.36084 105.9 1.28636L107.648 2.25764ZM108.322 1.8H114.91V-0.200002H108.322V1.8ZM114.91 1.8C114.915 1.8 114.914 1.80044 114.91 1.79949C114.905 1.79851 114.898 1.79663 114.891 1.79363C114.884 1.79065 114.879 1.78782 114.878 1.78673C114.876 1.78574 114.879 1.78773 114.887 1.79511L116.301 0.380892C115.927 0.00734061 115.447 -0.200002 114.91 -0.200002V1.8ZM114.887 1.7951C114.894 1.80248 114.896 1.80571 114.895 1.80428C114.894 1.80268 114.891 1.79813 114.888 1.79105C114.885 1.78394 114.883 1.77726 114.882 1.77226C114.881 1.76741 114.882 1.76688 114.882 1.772H116.882C116.882 1.23444 116.674 0.754447 116.301 0.380895L114.887 1.7951ZM114.882 1.772V25.028H116.882V1.772H114.882ZM114.882 25.028C114.882 25.0331 114.881 25.0326 114.882 25.0277C114.883 25.0227 114.885 25.0161 114.888 25.0089C114.891 25.0019 114.894 24.9973 114.895 24.9957C114.896 24.9943 114.894 24.9975 114.887 25.0049L116.301 26.4191C116.674 26.0456 116.882 25.5656 116.882 25.028H114.882ZM114.887 25.0049C114.879 25.0123 114.876 25.0143 114.878 25.0133C114.879 25.0122 114.884 25.0093 114.891 25.0064C114.898 25.0034 114.905 25.0015 114.91 25.0005C114.914 24.9996 114.915 25 114.91 25V27C115.447 27 115.927 26.7927 116.301 26.4191L114.887 25.0049ZM114.91 25H108.394V27H114.91V25ZM108.394 25C108.389 25 108.389 24.9996 108.394 25.0005C108.399 25.0015 108.406 25.0034 108.413 25.0064C108.42 25.0093 108.424 25.0122 108.426 25.0133C108.428 25.0143 108.424 25.0123 108.417 25.0049L107.003 26.4191C107.376 26.7927 107.856 27 108.394 27V25ZM108.417 25.0049C108.41 24.9975 108.408 24.9943 108.409 24.9957C108.41 24.9973 108.412 25.0019 108.415 25.0089C108.418 25.0161 108.42 25.0227 108.421 25.0277C108.422 25.0326 108.422 25.0331 108.422 25.028H106.422C106.422 25.5656 106.629 26.0456 107.003 26.4191L108.417 25.0049ZM108.422 25.028V13.868H106.422V25.028H108.422ZM106.53 13.4158L103.902 18.5998L105.686 19.5042L108.314 14.3202L106.53 13.4158ZM103.875 18.6581C103.893 18.6159 103.901 18.6177 103.861 18.6635C103.824 18.7065 103.759 18.7702 103.657 18.854L104.923 20.402C105.221 20.1579 105.544 19.8408 105.713 19.4459L103.875 18.6581ZM103.657 18.854C103.605 18.8966 103.506 18.952 103.282 18.952V20.952C103.874 20.952 104.447 20.7914 104.923 20.402L103.657 18.854ZM103.282 18.952H100.834V20.952H103.282V18.952ZM100.834 18.952C100.61 18.952 100.511 18.8966 100.459 18.854L99.1926 20.402C99.6686 20.7914 100.242 20.952 100.834 20.952V18.952ZM100.459 18.854C100.357 18.7702 100.292 18.7065 100.254 18.6635C100.214 18.6177 100.223 18.6159 100.241 18.6581L98.4027 19.4459C98.5719 19.8408 98.8943 20.1579 99.1926 20.402L100.459 18.854ZM100.214 18.5998L97.5857 13.4158L95.8019 14.3202L98.4299 19.5042L100.214 18.5998ZM95.6938 13.868V25.028H97.6938V13.868H95.6938ZM95.6938 25.028C95.6938 25.0331 95.6934 25.0326 95.6943 25.0277C95.6953 25.0227 95.6972 25.0161 95.7002 25.0089C95.7032 25.0019 95.706 24.9973 95.7071 24.9957C95.7081 24.9943 95.7061 24.9975 95.6987 25.0049L97.1129 26.4191C97.4865 26.0456 97.6938 25.5656 97.6938 25.028H95.6938ZM95.6987 25.0049C95.6913 25.0123 95.6881 25.0143 95.6895 25.0133C95.6911 25.0122 95.6957 25.0093 95.7028 25.0064C95.7099 25.0034 95.7165 25.0015 95.7216 25.0005C95.7264 24.9996 95.7269 25 95.7218 25V27C96.2594 27 96.7394 26.7927 97.1129 26.4191L95.6987 25.0049ZM95.7218 25H89.2058V27H95.7218V25ZM89.2058 25C89.2007 25 89.2012 24.9996 89.2061 25.0005C89.2111 25.0015 89.2178 25.0034 89.2249 25.0064C89.2319 25.0093 89.2365 25.0122 89.2381 25.0133C89.2395 25.0143 89.2363 25.0123 89.2289 25.0049L87.8147 26.4191C88.1883 26.7927 88.6683 27 89.2058 27V25ZM89.2289 25.0049C89.2215 24.9975 89.2196 24.9943 89.2205 24.9957C89.2216 24.9973 89.2245 25.0019 89.2274 25.0089C89.2304 25.0161 89.2323 25.0227 89.2333 25.0277C89.2342 25.0326 89.2338 25.0331 89.2338 25.028H87.2338C87.2338 25.5656 87.4412 26.0456 87.8147 26.4191L89.2289 25.0049ZM89.2338 25.028V1.772H87.2338V25.028H89.2338ZM89.2338 1.772C89.2338 1.76688 89.2342 1.76741 89.2333 1.77226C89.2323 1.77727 89.2304 1.78394 89.2274 1.79106C89.2245 1.79813 89.2216 1.80268 89.2205 1.80428C89.2196 1.80571 89.2215 1.80248 89.2289 1.7951L87.8147 0.380893C87.4412 0.754444 87.2338 1.23444 87.2338 1.772H89.2338ZM89.2289 1.7951C89.2363 1.78773 89.2395 1.78574 89.2381 1.78673C89.2365 1.78782 89.2319 1.79065 89.2249 1.79363C89.2178 1.79663 89.2111 1.79851 89.2061 1.79949C89.2012 1.80044 89.2007 1.8 89.2058 1.8V-0.200002C88.6683 -0.200002 88.1883 0.00734024 87.8147 0.380893L89.2289 1.7951ZM89.2058 1.8H95.7938V-0.200002H89.2058V1.8ZM95.7938 1.8C96.0591 1.8 96.2618 1.88716 96.4677 2.25764L98.216 1.28636C97.7018 0.36084 96.8725 -0.200002 95.7938 -0.200002V1.8ZM96.4641 2.25111L101.18 10.8911L102.936 9.93289L98.2196 1.29289L96.4641 2.25111ZM102.936 10.8911L107.652 2.25111L105.896 1.29289L101.18 9.93289L102.936 10.8911ZM144.992 19.268L144.285 19.9751L144.285 19.9751L144.992 19.268ZM144.992 25.712L144.285 25.0049L144.285 25.0049L144.992 25.712ZM144.632 1.088L143.925 1.7951L143.925 1.79511L144.632 1.088ZM144.632 7.532L143.925 6.82489L143.925 6.8249L144.632 7.532ZM129.944 7.82V6.82H128.944V7.82H129.944ZM129.944 10.088H128.944V11.088H129.944V10.088ZM142.652 10.376L141.945 11.0831L141.945 11.0831L142.652 10.376ZM142.652 16.424L141.945 15.7169L141.945 15.7169L142.652 16.424ZM129.944 16.712V15.712H128.944V16.712H129.944ZM129.944 18.98H128.944V19.98H129.944V18.98ZM144.308 19.98C144.313 19.98 144.312 19.9804 144.307 19.9795C144.302 19.9785 144.296 19.9766 144.289 19.9736C144.282 19.9707 144.277 19.9678 144.275 19.9667C144.274 19.9657 144.277 19.9677 144.285 19.9751L145.699 18.5609C145.325 18.1873 144.845 17.98 144.308 17.98V19.98ZM144.285 19.9751C144.292 19.9825 144.294 19.9857 144.293 19.9843C144.292 19.9827 144.289 19.9781 144.286 19.9711C144.283 19.9639 144.281 19.9573 144.28 19.9523C144.279 19.9474 144.28 19.9469 144.28 19.952H146.28C146.28 19.4144 146.072 18.9344 145.699 18.5609L144.285 19.9751ZM144.28 19.952V25.028H146.28V19.952H144.28ZM144.28 25.028C144.28 25.0331 144.279 25.0326 144.28 25.0277C144.281 25.0227 144.283 25.0161 144.286 25.0089C144.289 25.0019 144.292 24.9973 144.293 24.9957C144.294 24.9943 144.292 24.9975 144.285 25.0049L145.699 26.4191C146.072 26.0456 146.28 25.5656 146.28 25.028H144.28ZM144.285 25.0049C144.277 25.0123 144.274 25.0143 144.275 25.0133C144.277 25.0122 144.282 25.0093 144.289 25.0064C144.296 25.0034 144.302 25.0015 144.307 25.0005C144.312 24.9996 144.313 25 144.308 25V27C144.845 27 145.325 26.7927 145.699 26.4191L144.285 25.0049ZM144.308 25H121.556V27H144.308V25ZM121.556 25C121.551 25 121.551 24.9996 121.556 25.0005C121.561 25.0015 121.568 25.0034 121.575 25.0064C121.582 25.0093 121.586 25.0122 121.588 25.0133C121.589 25.0143 121.586 25.0123 121.579 25.0049L120.165 26.4191C120.538 26.7927 121.018 27 121.556 27V25ZM121.579 25.0049C121.571 24.9975 121.569 24.9943 121.57 24.9957C121.572 24.9973 121.574 25.0019 121.577 25.0089C121.58 25.0161 121.582 25.0227 121.583 25.0277C121.584 25.0326 121.584 25.0331 121.584 25.028H119.584C119.584 25.5656 119.791 26.0456 120.165 26.4191L121.579 25.0049ZM121.584 25.028V1.772H119.584V25.028H121.584ZM121.584 1.772C121.584 1.76688 121.584 1.76741 121.583 1.77226C121.582 1.77727 121.58 1.78394 121.577 1.79106C121.574 1.79813 121.572 1.80268 121.57 1.80428C121.569 1.80571 121.571 1.80248 121.579 1.7951L120.165 0.380893C119.791 0.754444 119.584 1.23444 119.584 1.772H121.584ZM121.579 1.7951C121.586 1.78773 121.589 1.78574 121.588 1.78673C121.586 1.78782 121.582 1.79065 121.575 1.79363C121.568 1.79663 121.561 1.79851 121.556 1.79949C121.551 1.80044 121.551 1.8 121.556 1.8V-0.200002C121.018 -0.200002 120.538 0.00734024 120.165 0.380893L121.579 1.7951ZM121.556 1.8H143.948V-0.200002H121.556V1.8ZM143.948 1.8C143.953 1.8 143.952 1.80044 143.947 1.79949C143.942 1.79851 143.936 1.79663 143.929 1.79363C143.922 1.79065 143.917 1.78782 143.915 1.78673C143.914 1.78574 143.917 1.78772 143.925 1.7951L145.339 0.380895C144.965 0.00733973 144.485 -0.200002 143.948 -0.200002V1.8ZM143.925 1.79511C143.932 1.80249 143.934 1.80571 143.933 1.80428C143.932 1.80268 143.929 1.79813 143.926 1.79106C143.923 1.78394 143.921 1.77727 143.92 1.77226C143.919 1.76741 143.92 1.76688 143.92 1.772H145.92C145.92 1.23444 145.712 0.754444 145.339 0.380892L143.925 1.79511ZM143.92 1.772V6.848H145.92V1.772H143.92ZM143.92 6.848C143.92 6.85312 143.919 6.85259 143.92 6.84774C143.921 6.84273 143.923 6.83606 143.926 6.82894C143.929 6.82186 143.932 6.81732 143.933 6.81572C143.934 6.81429 143.932 6.81751 143.925 6.82489L145.339 8.23911C145.712 7.86555 145.92 7.38556 145.92 6.848H143.92ZM143.925 6.8249C143.917 6.83227 143.914 6.83426 143.915 6.83327C143.917 6.83218 143.922 6.82935 143.929 6.82636C143.936 6.82337 143.942 6.82149 143.947 6.82051C143.952 6.81956 143.953 6.82 143.948 6.82V8.82C144.485 8.82 144.965 8.61266 145.339 8.2391L143.925 6.8249ZM143.948 6.82H129.944V8.82H143.948V6.82ZM128.944 7.82V10.088H130.944V7.82H128.944ZM129.944 11.088H141.968V9.088H129.944V11.088ZM141.968 11.088C141.973 11.088 141.972 11.0884 141.967 11.0875C141.962 11.0865 141.956 11.0846 141.949 11.0816C141.942 11.0787 141.937 11.0758 141.935 11.0747C141.934 11.0737 141.937 11.0757 141.945 11.0831L143.359 9.6689C142.985 9.29534 142.505 9.088 141.968 9.088V11.088ZM141.945 11.0831C141.952 11.0905 141.954 11.0937 141.953 11.0923C141.952 11.0907 141.949 11.0861 141.946 11.0791C141.943 11.0719 141.941 11.0653 141.94 11.0603C141.939 11.0554 141.94 11.0549 141.94 11.06H143.94C143.94 10.5224 143.732 10.0424 143.359 9.66889L141.945 11.0831ZM141.94 11.06V15.74H143.94V11.06H141.94ZM141.94 15.74C141.94 15.7451 141.939 15.7446 141.94 15.7397C141.941 15.7347 141.943 15.7281 141.946 15.7209C141.949 15.7139 141.952 15.7093 141.953 15.7077C141.954 15.7063 141.952 15.7095 141.945 15.7169L143.359 17.1311C143.732 16.7576 143.94 16.2776 143.94 15.74H141.94ZM141.945 15.7169C141.937 15.7243 141.934 15.7263 141.935 15.7253C141.937 15.7242 141.942 15.7213 141.949 15.7184C141.956 15.7154 141.962 15.7135 141.967 15.7125C141.972 15.7116 141.973 15.712 141.968 15.712V17.712C142.505 17.712 142.985 17.5047 143.359 17.1311L141.945 15.7169ZM141.968 15.712H129.944V17.712H141.968V15.712ZM128.944 16.712V18.98H130.944V16.712H128.944ZM129.944 19.98H144.308V17.98H129.944V19.98ZM167.91 8.54V7.54H166.91V8.54H167.91ZM167.622 25.712L168.329 26.4191L168.329 26.4191L167.622 25.712ZM158.838 25.712L158.131 26.4191L158.131 26.4191L158.838 25.712ZM158.55 8.54H159.55V7.54H158.55V8.54ZM175.65 1.8C175.655 1.8 175.654 1.80044 175.649 1.79949C175.644 1.79851 175.638 1.79663 175.631 1.79363C175.624 1.79065 175.619 1.78782 175.617 1.78673C175.616 1.78574 175.619 1.78773 175.627 1.79511L177.041 0.380892C176.667 0.00734061 176.187 -0.200002 175.65 -0.200002V1.8ZM175.627 1.79511C175.634 1.80249 175.636 1.80571 175.635 1.80428C175.634 1.80268 175.631 1.79813 175.628 1.79106C175.625 1.78394 175.623 1.77727 175.622 1.77226C175.621 1.76741 175.622 1.76688 175.622 1.772H177.622C177.622 1.23444 177.414 0.754444 177.041 0.380892L175.627 1.79511ZM175.622 1.772V7.568H177.622V1.772H175.622ZM175.622 7.568C175.622 7.57312 175.621 7.57259 175.622 7.56774C175.623 7.56273 175.625 7.55606 175.628 7.54894C175.631 7.54186 175.634 7.53732 175.635 7.53572C175.636 7.53429 175.634 7.53751 175.627 7.54489L177.041 8.95911C177.414 8.58555 177.622 8.10556 177.622 7.568H175.622ZM175.627 7.54489C175.619 7.55227 175.616 7.55425 175.617 7.55327C175.619 7.55217 175.624 7.54934 175.631 7.54636C175.638 7.54337 175.644 7.54149 175.649 7.54051C175.654 7.53956 175.655 7.54 175.65 7.54V9.54C176.187 9.54 176.667 9.33266 177.041 8.95911L175.627 7.54489ZM175.65 7.54H167.91V9.54H175.65V7.54ZM166.91 8.54V25.028H168.91V8.54H166.91ZM166.91 25.028C166.91 25.0331 166.909 25.0326 166.91 25.0277C166.911 25.0227 166.913 25.0161 166.916 25.0089C166.919 25.0019 166.922 24.9973 166.923 24.9957C166.924 24.9943 166.922 24.9975 166.915 25.0049L168.329 26.4191C168.702 26.0456 168.91 25.5656 168.91 25.028H166.91ZM166.915 25.0049C166.907 25.0123 166.904 25.0143 166.905 25.0133C166.907 25.0122 166.912 25.0093 166.919 25.0064C166.926 25.0034 166.932 25.0015 166.937 25.0005C166.942 24.9996 166.943 25 166.938 25V27C167.475 27 167.955 26.7927 168.329 26.4191L166.915 25.0049ZM166.938 25H159.522V27H166.938V25ZM159.522 25C159.517 25 159.517 24.9996 159.522 25.0005C159.527 25.0015 159.534 25.0034 159.541 25.0064C159.548 25.0093 159.552 25.0122 159.554 25.0133C159.555 25.0143 159.552 25.0123 159.545 25.0049L158.131 26.4191C158.504 26.7927 158.984 27 159.522 27V25ZM159.545 25.0049C159.537 24.9975 159.535 24.9943 159.536 24.9957C159.538 24.9973 159.54 25.0019 159.543 25.0089C159.546 25.0161 159.548 25.0227 159.549 25.0277C159.55 25.0326 159.55 25.0331 159.55 25.028H157.55C157.55 25.5656 157.757 26.0456 158.131 26.4191L159.545 25.0049ZM159.55 25.028V8.54H157.55V25.028H159.55ZM158.55 7.54H150.81V9.54H158.55V7.54ZM150.81 7.54C150.805 7.54 150.805 7.53956 150.81 7.54051C150.815 7.54149 150.822 7.54337 150.829 7.54636C150.836 7.54934 150.84 7.55217 150.842 7.55327C150.843 7.55425 150.84 7.55227 150.833 7.54489L149.419 8.95911C149.792 9.33266 150.272 9.54 150.81 9.54V7.54ZM150.833 7.54489C150.825 7.53751 150.823 7.53429 150.824 7.53572C150.826 7.53732 150.828 7.54186 150.831 7.54894C150.834 7.55606 150.836 7.56273 150.837 7.56774C150.838 7.57259 150.838 7.57312 150.838 7.568H148.838C148.838 8.10556 149.045 8.58555 149.419 8.95911L150.833 7.54489ZM150.838 7.568V1.772H148.838V7.568H150.838ZM150.838 1.772C150.838 1.76688 150.838 1.76741 150.837 1.77226C150.836 1.77727 150.834 1.78394 150.831 1.79106C150.828 1.79813 150.826 1.80268 150.824 1.80428C150.823 1.80571 150.825 1.80248 150.833 1.7951L149.419 0.380893C149.045 0.754444 148.838 1.23444 148.838 1.772H150.838ZM150.833 1.7951C150.84 1.78773 150.843 1.78574 150.842 1.78673C150.84 1.78782 150.836 1.79065 150.829 1.79363C150.822 1.79663 150.815 1.79851 150.81 1.79949C150.805 1.80044 150.805 1.8 150.81 1.8V-0.200002C150.272 -0.200002 149.792 0.00734024 149.419 0.380893L150.833 1.7951ZM150.81 1.8H175.65V-0.200002H150.81V1.8ZM188.632 24.776L189.566 25.1331L189.57 25.1228L189.573 25.1123L188.632 24.776ZM179.632 25.784L178.872 26.4348L178.922 26.4932L178.981 26.5433L179.632 25.784ZM179.416 25.208L178.429 25.0436L178.416 25.1252V25.208H179.416ZM179.452 24.992L178.505 24.6691L178.479 24.7467L178.465 24.8276L179.452 24.992ZM187.3 1.988L188.246 2.31088L188.251 2.29655L188.255 2.28208L187.3 1.988ZM187.84 1.16L187.167 0.420057L187.167 0.42006L187.84 1.16ZM200.008 1.16L200.68 0.420058L200.68 0.420058L200.008 1.16ZM200.548 1.988L199.592 2.28209L199.596 2.29655L199.601 2.31088L200.548 1.988ZM208.396 24.992L209.382 24.8276L209.369 24.7467L209.342 24.6691L208.396 24.992ZM208.432 25.208H209.432V25.1252L209.418 25.0436L208.432 25.208ZM208.18 25.784L208.887 26.4911L208.887 26.4911L208.18 25.784ZM199.216 24.776L198.274 25.1123L198.278 25.1228L198.282 25.1331L199.216 24.776ZM198.316 22.256L199.257 21.9197L199.02 21.256H198.316V22.256ZM189.532 22.256V21.256H188.827L188.59 21.9197L189.532 22.256ZM193.924 7.748L194.87 7.42495L193.924 4.65245L192.977 7.42495L193.924 7.748ZM191.368 15.236L190.421 14.913L189.97 16.236H191.368V15.236ZM196.48 15.236V16.236H197.878L197.426 14.913L196.48 15.236ZM187.698 24.4189C187.589 24.7019 187.473 24.8336 187.39 24.8961C187.316 24.9516 187.209 25 187.012 25V27C187.583 27 188.129 26.8444 188.595 26.4919C189.053 26.1464 189.362 25.6661 189.566 25.1331L187.698 24.4189ZM187.012 25H180.208V27H187.012V25ZM180.208 25C180.213 25 180.231 25.0014 180.253 25.0097C180.275 25.0179 180.285 25.0267 180.282 25.0247L178.981 26.5433C179.325 26.8385 179.747 27 180.208 27V25ZM180.391 25.1332C180.389 25.1309 180.398 25.141 180.406 25.1629C180.414 25.1851 180.416 25.2026 180.416 25.208H178.416C178.416 25.669 178.577 26.0904 178.872 26.4348L180.391 25.1332ZM180.402 25.3724L180.438 25.1564L178.465 24.8276L178.429 25.0436L180.402 25.3724ZM180.398 25.3149L188.246 2.31088L186.353 1.66511L178.505 24.6691L180.398 25.3149ZM188.255 2.28208C188.294 2.1571 188.368 2.03094 188.512 1.89994L187.167 0.42006C186.783 0.769062 186.497 1.1949 186.344 1.69391L188.255 2.28208ZM188.512 1.89994C188.545 1.86984 188.641 1.8 188.92 1.8V-0.200002C188.286 -0.200002 187.662 -0.029844 187.167 0.420057L188.512 1.89994ZM188.92 1.8H198.928V-0.200002H188.92V1.8ZM198.928 1.8C199.206 1.8 199.302 1.86984 199.335 1.89994L200.68 0.420058C200.185 -0.0298441 199.561 -0.200002 198.928 -0.200002V1.8ZM199.335 1.89994C199.479 2.03094 199.553 2.1571 199.592 2.28209L201.503 1.69391C201.35 1.1949 201.064 0.76906 200.68 0.420058L199.335 1.89994ZM199.601 2.31088L207.449 25.3149L209.342 24.6691L201.494 1.66511L199.601 2.31088ZM207.409 25.1564L207.445 25.3724L209.418 25.0436L209.382 24.8276L207.409 25.1564ZM207.432 25.208C207.432 25.1824 207.437 25.1475 207.452 25.1132C207.467 25.0807 207.48 25.0694 207.473 25.0769L208.887 26.4911C209.222 26.1562 209.432 25.717 209.432 25.208H207.432ZM207.473 25.0769C207.491 25.0581 207.523 25.0343 207.565 25.0175C207.606 25.0012 207.635 25 207.64 25V27C208.103 27 208.543 26.8349 208.887 26.4911L207.473 25.0769ZM207.64 25H200.836V27H207.64V25ZM200.836 25C200.639 25 200.531 24.9516 200.457 24.8961C200.375 24.8336 200.258 24.7019 200.15 24.4189L198.282 25.1331C198.485 25.6661 198.795 26.1464 199.252 26.4919C199.718 26.8444 200.265 27 200.836 27V25ZM200.157 24.4397L199.257 21.9197L197.374 22.5923L198.274 25.1123L200.157 24.4397ZM198.316 21.256H189.532V23.256H198.316V21.256ZM188.59 21.9197L187.69 24.4397L189.573 25.1123L190.473 22.5923L188.59 21.9197ZM192.977 7.42495L190.421 14.913L192.314 15.559L194.87 8.07104L192.977 7.42495ZM191.368 16.236H196.48V14.236H191.368V16.236ZM197.426 14.913L194.87 7.42495L192.977 8.07104L195.533 15.559L197.426 14.913ZM236.822 25.712L236.114 25.0049L236.822 25.712ZM223.574 1.088L222.866 1.7951L222.866 1.79511L223.574 1.088ZM223.862 18.62H222.862V19.62H223.862V18.62ZM236.138 19.62C236.143 19.62 236.142 19.6204 236.137 19.6195C236.132 19.6185 236.126 19.6166 236.119 19.6136C236.111 19.6107 236.107 19.6078 236.105 19.6067C236.104 19.6057 236.107 19.6077 236.114 19.6151L237.529 18.2009C237.155 17.8273 236.675 17.62 236.138 17.62V19.62ZM236.114 19.6151C236.122 19.6225 236.124 19.6257 236.123 19.6243C236.122 19.6227 236.119 19.6181 236.116 19.6111C236.113 19.6039 236.111 19.5973 236.11 19.5923C236.109 19.5874 236.11 19.5869 236.11 19.592H238.11C238.11 19.0544 237.902 18.5744 237.529 18.2009L236.114 19.6151ZM236.11 19.592V25.028H238.11V19.592H236.11ZM236.11 25.028C236.11 25.0331 236.109 25.0326 236.11 25.0277C236.111 25.0227 236.113 25.0161 236.116 25.0089C236.119 25.0019 236.122 24.9973 236.123 24.9957C236.124 24.9943 236.122 24.9975 236.114 25.0049L237.529 26.4191C237.902 26.0456 238.11 25.5656 238.11 25.028H236.11ZM236.114 25.0049C236.107 25.0123 236.104 25.0143 236.105 25.0133C236.107 25.0122 236.111 25.0093 236.119 25.0064C236.126 25.0034 236.132 25.0015 236.137 25.0005C236.142 24.9996 236.143 25 236.138 25V27C236.675 27 237.155 26.7927 237.529 26.4191L236.114 25.0049ZM236.138 25H215.114V27H236.138V25ZM215.114 25C215.108 25 215.109 24.9996 215.114 25.0005C215.119 25.0015 215.126 25.0034 215.133 25.0064C215.14 25.0093 215.144 25.0122 215.146 25.0133C215.147 25.0143 215.144 25.0123 215.137 25.0049L213.722 26.4191C214.096 26.7927 214.576 27 215.114 27V25ZM215.137 25.0049C215.129 24.9975 215.127 24.9943 215.128 24.9957C215.129 24.9973 215.132 25.0019 215.135 25.0089C215.138 25.0161 215.14 25.0227 215.141 25.0277C215.142 25.0326 215.142 25.0331 215.142 25.028H213.142C213.142 25.5656 213.349 26.0456 213.722 26.4191L215.137 25.0049ZM215.142 25.028V1.772H213.142V25.028H215.142ZM215.142 1.772C215.142 1.76688 215.142 1.76741 215.141 1.77226C215.14 1.77727 215.138 1.78394 215.135 1.79106C215.132 1.79813 215.129 1.80268 215.128 1.80428C215.127 1.80571 215.129 1.80248 215.137 1.7951L213.722 0.380893C213.349 0.754444 213.142 1.23444 213.142 1.772H215.142ZM215.137 1.7951C215.144 1.78773 215.147 1.78574 215.146 1.78673C215.144 1.78782 215.14 1.79065 215.133 1.79363C215.126 1.79663 215.119 1.79851 215.114 1.79949C215.109 1.80044 215.108 1.8 215.114 1.8V-0.200002C214.576 -0.200002 214.096 0.0073401 213.722 0.380893L215.137 1.7951ZM215.114 1.8H222.89V-0.200002H215.114V1.8ZM222.89 1.8C222.895 1.8 222.894 1.80044 222.889 1.79949C222.884 1.79851 222.878 1.79663 222.871 1.79363C222.863 1.79065 222.859 1.78782 222.857 1.78673C222.856 1.78574 222.859 1.78772 222.866 1.7951L224.281 0.380893C223.907 0.00734017 223.427 -0.200002 222.89 -0.200002V1.8ZM222.866 1.79511C222.874 1.80249 222.876 1.80571 222.875 1.80428C222.874 1.80268 222.871 1.79813 222.868 1.79106C222.865 1.78394 222.863 1.77727 222.862 1.77226C222.861 1.76741 222.862 1.76688 222.862 1.772H224.862C224.862 1.23444 224.654 0.754444 224.281 0.380892L222.866 1.79511ZM222.862 1.772V18.62H224.862V1.772H222.862ZM223.862 19.62H236.138V17.62H223.862V19.62Z" fill="#C4C4C4"/>
</svg>
