<svg width="33" height="27" viewBox="0 0 33 27" fill="none" xmlns="http://www.w3.org/2000/svg">
<path d="M14.5664 26.2422C16.1683 26.2422 17.4668 25.101 17.4668 23.6934C17.4668 22.2857 16.1683 21.1445 14.5664 21.1445C12.9646 21.1445 11.666 22.2857 11.666 23.6934C11.666 25.101 12.9646 26.2422 14.5664 26.2422Z" fill="white"/>
<path d="M24.2988 26.2422C25.9007 26.2422 27.1992 25.101 27.1992 23.6934C27.1992 22.2857 25.9007 21.1445 24.2988 21.1445C22.697 21.1445 21.3984 22.2857 21.3984 23.6934C21.3984 25.101 22.697 26.2422 24.2988 26.2422Z" fill="white"/>
<path d="M0.966791 2.45317H4.9985L9.66604 16.8122L9.29995 17.4557C8.336 19.1481 9.73533 21.1445 11.8944 21.1445H28.1658C28.7002 21.1445 29.1326 20.7645 29.1326 20.2949C29.1326 19.8253 28.7002 19.4453 28.1658 19.4453H11.8944C11.1765 19.4453 10.7073 18.7809 11.0296 18.2157L11.2968 17.7461H28.1658C28.5973 17.7461 28.9769 17.4947 29.0958 17.1296L32.963 5.23512C33.0461 4.97876 32.9876 4.70327 32.8054 4.49007C32.6222 4.27767 32.3361 4.15238 32.0331 4.15238H7.56179L6.65732 1.37038C6.53834 1.00533 6.15885 0.753906 5.72734 0.753906H0.966791C0.432413 0.753906 0 1.13391 0 1.60351C0 2.07312 0.432413 2.45317 0.966791 2.45317Z" fill="white"/>
</svg>
