<svg width="6" height="9" viewBox="0 0 6 9" fill="none" xmlns="http://www.w3.org/2000/svg">
<path d="M5.83709 4.14882L1.29221 0.143779C1.1871 0.0510728 1.04677 0 0.897152 0C0.74753 0 0.607207 0.0510728 0.50209 0.143779L0.167391 0.438655C-0.0503999 0.6308 -0.0503999 0.94309 0.167391 1.13494L3.98384 4.49813L0.163156 7.86506C0.0580388 7.95776 0 8.08135 0 8.21313C0 8.34505 0.0580388 8.46864 0.163156 8.56142L0.497855 8.85622C0.603055 8.94893 0.743295 9 0.892917 9C1.04254 9 1.18286 8.94893 1.28798 8.85622L5.83709 4.84752C5.94246 4.75452 6.00033 4.63035 6 4.49835C6.00033 4.36584 5.94246 4.24175 5.83709 4.14882Z" fill="white"/>
</svg>
