<svg width="21" height="21" viewBox="0 0 21 21" fill="none" xmlns="http://www.w3.org/2000/svg">
<path d="M20.3898 19.8599L20.3898 19.8599C20.5367 20.0068 20.5367 20.2432 20.3899 20.3901C20.3165 20.4634 20.2213 20.5 20.1248 20.5C20.0283 20.5 19.933 20.4634 19.8597 20.3901L13.8879 14.4182L13.5696 14.0999L13.2197 14.3831C11.8758 15.4711 10.1702 16.125 8.31242 16.125C4.00537 16.125 0.5 12.6196 0.5 8.31247C0.5 4.00536 4.00533 0.5 8.31238 0.5C12.6194 0.5 16.1248 4.0054 16.1248 8.31251C16.1248 10.1703 15.4709 11.876 14.383 13.2199L14.0997 13.5698L14.418 13.8881L20.3898 19.8599ZM1.24999 8.31247C1.24999 12.2076 4.4173 15.375 8.31242 15.375C12.2075 15.375 15.3749 12.2076 15.3749 8.31247C15.3749 4.41732 12.2075 1.24997 8.31242 1.24997C4.4173 1.24997 1.24999 4.41732 1.24999 8.31247Z" fill="#C4C4C4" stroke="#C4C4C4"/>
</svg>
