<?xml version="1.0" encoding="utf-8"?>
<!-- Generator: Adobe Illustrator 26.0.0, SVG Export Plug-In . SVG Version: 6.00 Build 0)  -->
<svg version="1.1" id="Layer_1" xmlns="http://www.w3.org/2000/svg" xmlns:xlink="http://www.w3.org/1999/xlink" x="0px" y="0px"
	 viewBox="0 0 21 21" style="enable-background:new 0 0 21 21;" xml:space="preserve">
<style type="text/css">
	.st0{fill:#293358;stroke:#293358;}
</style>
<path class="st0" d="M20.4,19.9L20.4,19.9c0.1,0.1,0.1,0.4,0,0.5c-0.1,0.1-0.2,0.1-0.3,0.1s-0.2,0-0.3-0.1l-6-6l-0.3-0.3l-0.3,0.3
	c-1.3,1.1-3,1.7-4.9,1.7c-4.3,0-7.8-3.5-7.8-7.8C0.5,4,4,0.5,8.3,0.5c4.3,0,7.8,3.5,7.8,7.8c0,1.9-0.7,3.6-1.7,4.9l-0.3,0.3l0.3,0.3
	L20.4,19.9z M1.2,8.3c0,3.9,3.2,7.1,7.1,7.1c3.9,0,7.1-3.2,7.1-7.1c0-3.9-3.2-7.1-7.1-7.1C4.4,1.2,1.2,4.4,1.2,8.3z"/>
</svg>
