<?xml version="1.0" encoding="utf-8"?>
<!-- Generator: Adobe Illustrator 26.0.0, SVG Export Plug-In . SVG Version: 6.00 Build 0)  -->
<svg version="1.1" id="Layer_1" xmlns="http://www.w3.org/2000/svg" xmlns:xlink="http://www.w3.org/1999/xlink" x="0px" y="0px"
	 viewBox="0 0 33 27" style="enable-background:new 0 0 33 27;" xml:space="preserve">
<style type="text/css">
	.st0{fill:#FFFFFF;}
</style>
<path class="st0" d="M14.6,26.2c1.6,0,2.9-1.1,2.9-2.5c0-1.4-1.3-2.5-2.9-2.5c-1.6,0-2.9,1.1-2.9,2.5C11.7,25.1,13,26.2,14.6,26.2z"
	/>
<path class="st0" d="M24.3,26.2c1.6,0,2.9-1.1,2.9-2.5c0-1.4-1.3-2.5-2.9-2.5c-1.6,0-2.9,1.1-2.9,2.5C21.4,25.1,22.7,26.2,24.3,26.2
	z"/>
<path class="st0" d="M1,2.5h4l4.7,14.4l-0.4,0.6c-1,1.7,0.4,3.7,2.6,3.7h16.3c0.5,0,1-0.4,1-0.8c0-0.5-0.4-0.8-1-0.8H11.9
	c-0.7,0-1.2-0.7-0.9-1.2l0.3-0.5h16.9c0.4,0,0.8-0.3,0.9-0.6L33,5.2C33,5,33,4.7,32.8,4.5c-0.2-0.2-0.5-0.3-0.8-0.3H7.6L6.7,1.4
	C6.5,1,6.2,0.8,5.7,0.8H1c-0.5,0-1,0.4-1,0.8C0,2.1,0.4,2.5,1,2.5z"/>
</svg>
